<?xml version="1.0" encoding="UTF-8"?>
<svg width="256px" height="256px" viewBox="0 0 256 256" version="1.1" xmlns="http://www.w3.org/2000/svg" xmlns:xlink="http://www.w3.org/1999/xlink">
    <!-- Generator: Sketch 55.2 (78181) - https://sketchapp.com -->
    <title>Logo</title>
    <desc>Created with Sketch.</desc>
    <g id="Logo" stroke="none" stroke-width="1" fill="none" fill-rule="evenodd">
        <polygon id="Path" fill="#C624B5" fill-rule="nonzero" points="208.048367 160 222.478852 160 160 201.618053 160 192.005701 208.048367 160"></polygon>
        <path d="M35.4190977,161.279398 C42.814202,164.976531 51.0252834,167.283695 59.7099399,167.85849 L96,192.051863 L96,201.666667 L35.4190977,161.279398 L35.4190977,161.279398 Z" id="Path" fill="#C624B5" fill-rule="nonzero"></path>
        <path d="M153.333333,48 L246.666667,48 C251.821324,48 256,52.1786757 256,57.3333333 L256,150.666667 C256,155.821324 251.821324,160 246.666667,160 L153.333333,160 C148.178676,160 144,155.821324 144,150.666667 L144,57.3333333 C144,52.1786757 148.178676,48 153.333333,48 Z M227,104 L180,72 L180,136 L227,104 Z" id="Shape" fill="#151FA3" fill-rule="nonzero"></path>
        <path d="M17.3805268,115.476105 L35.8208268,119.164165 C30.5528076,109.387579 30.8901872,98.0128097 35.815554,88.8368892 L17.3805268,92.5238946 C16.4784133,96.2010502 16,100.044655 16,104 C16,107.955345 16.4784133,111.79895 17.3805306,115.476106 L17.3805268,115.476105 Z M77.3720377,57.8872753 L64.9605838,72.0099984 C75.3698475,72.3324658 85.3893765,77.7276712 91.222139,87.1782028 L97.2443891,69.37607 C91.7206934,64.0711149 84.9302906,60.075231 77.3720377,57.8872753 Z M97.2443891,138.62393 L91.224604,120.829084 C88.5327661,125.192256 84.7511553,128.969732 80,131.712813 C75.2488447,134.455894 70.0866494,135.842127 64.9621121,135.991741 L77.3720377,150.112725 C84.9302906,147.924769 91.7206934,143.928885 97.2443891,138.62393 L97.2443891,138.62393 Z M48.0076892,104.001345 C48.0076892,112.836425 55.1699373,119.998673 64.005018,119.998673 C72.8400988,119.998673 80.0023469,112.836425 80.0023469,104.001345 C80.0023469,95.1662638 72.8400988,88.0040157 64.005018,88.0040157 C55.1699373,88.0040157 48.0076892,95.1662638 48.0076892,104.001345 Z M64,168 C28.653776,168 0,139.346224 0,104 C0,68.653776 28.653776,40 64,40 C99.346224,40 128,68.653776 128,104 C128,139.346224 99.346224,168 64,168 Z" id="Shape" fill="#151FA3" fill-rule="nonzero"></path>
        <path d="M104,176 L152,176 C156.418278,176 160,179.581722 160,184 L160,203 L152,208 L104,208 L96,203 L96,184 C96,179.581722 99.581722,176 104,176 Z" id="Rectangle" fill="#151FA3" fill-rule="nonzero"></path>
    </g>
</svg>