<?xml version="1.0" encoding="UTF-8"?>
<svg width="112px" height="112px" viewBox="0 0 112 112" version="1.1" xmlns="http://www.w3.org/2000/svg" xmlns:xlink="http://www.w3.org/1999/xlink">
    <!-- Generator: Sketch 57.1 (83088) - https://sketch.com -->
    <title>artwork placeholder</title>
    <desc>Created with Sketch.</desc>
    <g id="Track" stroke="none" stroke-width="1" fill="none" fill-rule="evenodd">
        <g id="Track-(Meta-data)-Copy" transform="translate(-372.000000, -104.000000)" fill-rule="nonzero">
            <g id="artwork-placeholder" transform="translate(372.000000, 104.000000)">
                <rect id="Rectangle" fill="#E7EDF7" x="0" y="0" width="112" height="112"></rect>
                <g id="Logo" transform="translate(8.000000, 8.000000)" fill="#C8D1F4">
                    <polygon id="tape-2" points="78.0181375 60 83.4295696 60 60 75.6067699 60 72.0021379 78.0181375 60"></polygon>
                    <path d="M13.2821616,60.4797744 C16.0553258,61.866199 19.1344813,62.7313857 22.3912275,62.9469337 L36,72.0194487 L36,75.625 L13.2821616,60.4797744 L13.2821616,60.4797744 Z" id="tape-1"></path>
                    <path d="M57.5,18 L92.5,18 C94.4329966,18 96,19.5670034 96,21.5 L96,56.5 C96,58.4329966 94.4329966,60 92.5,60 L57.5,60 C55.5670034,60 54,58.4329966 54,56.5 L54,21.5 C54,19.5670034 55.5670034,18 57.5,18 Z M85.125,39 L67.5,27 L67.5,51 L85.125,39 Z" id="Play"></path>
                    <path d="M6.51769756,43.3035395 L13.43281,44.686562 C11.4573028,41.0203421 11.5838202,36.7548036 13.4308328,33.3138334 L6.51769756,34.6964605 C6.17940497,36.0753938 6,37.5167458 6,39 C6,40.4832542 6.17940497,41.9246062 6.51769898,43.3035399 L6.51769756,43.3035395 Z M29.0145141,21.7077282 L24.3602189,27.0037494 C28.2636928,27.1246747 32.0210162,29.1478767 34.2083021,32.6918261 L36.4666459,26.0160263 C34.39526,24.0266681 31.848859,22.5282116 29.0145141,21.7077282 Z M36.4666459,51.9839737 L34.2092265,45.3109064 C33.1997873,46.9470962 31.7816832,48.3636495 30,49.3923048 C28.2183168,50.4209601 26.2824935,50.9407976 24.360792,50.9969027 L29.0145141,56.2922718 C31.848859,55.4717884 34.39526,53.9733319 36.4666459,51.9839737 L36.4666459,51.9839737 Z M18.0028834,39.0005042 C18.0028834,42.3136595 20.6887265,44.9995025 24.0018818,44.9995025 C27.315037,44.9995025 30.0008801,42.3136595 30.0008801,39.0005042 C30.0008801,35.6873489 27.315037,33.0015059 24.0018818,33.0015059 C20.6887265,33.0015059 18.0028834,35.6873489 18.0028834,39.0005042 Z M24,63 C10.745166,63 0,52.254834 0,39 C0,25.745166 10.745166,15 24,15 C37.254834,15 48,25.745166 48,39 C48,52.254834 37.254834,63 24,63 Z" id="Reel"></path>
                    <path d="M39,66 L57,66 C58.6568542,66 60,67.3431458 60,69 L60,76.125 L57,78 L39,78 L36,76.125 L36,69 C36,67.3431458 37.3431458,66 39,66 Z" id="head"></path>
                </g>
            </g>
        </g>
    </g>
</svg>