<?xml version="1.0" encoding="UTF-8"?>
<svg width="64px" height="64px" viewBox="0 0 64 64" version="1.1" xmlns="http://www.w3.org/2000/svg" xmlns:xlink="http://www.w3.org/1999/xlink">
    <!-- Generator: Sketch 56.3 (81716) - https://sketch.com -->
    <title>navbar / logged in</title>
    <desc>Created with Sketch.</desc>
    <g id="Symbols" stroke="none" stroke-width="1" fill="none" fill-rule="evenodd">
        <g id="navbar-/-logged-in" fill-rule="nonzero">
            <g id="Logo">
                <polygon id="tape-2" fill="#C728B6" points="52.0120916 40 55.619713 40 40 50.4045133 40 48.0014253 52.0120916 40"></polygon>
                <path d="M8.85477443,40.3198496 C10.7035505,41.2441327 12.7563208,41.8209238 14.927485,41.9646225 L24,48.0129658 L24,50.4166667 L8.85477443,40.3198496 L8.85477443,40.3198496 Z" id="tape-1" fill="#C728B6"></path>
                <path d="M38.3333333,12 L61.6666667,12 C62.9553311,12 64,13.0446689 64,14.3333333 L64,37.6666667 C64,38.9553311 62.9553311,40 61.6666667,40 L38.3333333,40 C37.0446689,40 36,38.9553311 36,37.6666667 L36,14.3333333 C36,13.0446689 37.0446689,12 38.3333333,12 Z M56.75,26 L45,18 L45,34 L56.75,26 Z" id="Play" fill="#313DF2"></path>
                <path d="M4.34513171,28.8690263 L8.95520669,29.7910413 C7.63820189,27.3468948 7.7225468,24.5032024 8.95388851,22.2092223 L4.34513171,23.1309737 C4.11960331,24.0502625 4,25.0111638 4,26 C4,26.9888362 4.11960331,27.9497375 4.34513265,28.8690266 L4.34513171,28.8690263 Z M19.3430094,14.4718188 L16.240146,18.0024996 C18.8424619,18.0831165 21.3473441,19.4319178 22.8055348,21.7945507 L24.3110973,17.3440175 C22.9301734,16.0177787 21.2325726,15.0188077 19.3430094,14.4718188 Z M24.3110973,34.6559825 L22.806151,30.207271 C22.1331915,31.2980641 21.1877888,32.242433 20,32.9282032 C18.8122112,33.6139734 17.5216623,33.9605317 16.240528,33.9979351 L19.3430094,37.5281812 C21.2325726,36.9811923 22.9301734,35.9822213 24.3110973,34.6559825 L24.3110973,34.6559825 Z M12.0019223,26.0003361 C12.0019223,28.2091063 13.7924843,29.9996684 16.0012545,29.9996684 C18.2100247,29.9996684 20.0005867,28.2091063 20.0005867,26.0003361 C20.0005867,23.791566 18.2100247,22.0010039 16.0012545,22.0010039 C13.7924843,22.0010039 12.0019223,23.791566 12.0019223,26.0003361 Z M16,42 C7.163444,42 0,34.836556 0,26 C0,17.163444 7.163444,10 16,10 C24.836556,10 32,17.163444 32,26 C32,34.836556 24.836556,42 16,42 Z" id="Reel" fill="#313DF2"></path>
                <path d="M26,44 L38,44 C39.1045695,44 40,44.8954305 40,46 L40,50.75 L38,52 L26,52 L24,50.75 L24,46 C24,44.8954305 24.8954305,44 26,44 Z" id="head" fill="#313DF2"></path>
            </g>
        </g>
    </g>
</svg>